<svg width="11" height="19" viewBox="0 0 11 19" fill="none" xmlns="http://www.w3.org/2000/svg">
<path d="M11 0.505913C11 0.373305 10.9473 0.246128 10.8536 0.15236C10.7598 0.0585913 10.6326 0.00591282 10.5 0.00591282H8C6.74112 -0.0567963 5.5086 0.381304 4.57172 1.22449C3.63485 2.06768 3.06978 3.24741 3 4.50591V7.20591H0.5C0.367392 7.20591 0.240215 7.25859 0.146447 7.35236C0.0526785 7.44613 0 7.5733 0 7.70591V10.3059C0 10.4385 0.0526785 10.5657 0.146447 10.6595C0.240215 10.7532 0.367392 10.8059 0.5 10.8059H3V17.5059C3 17.6385 3.05268 17.7657 3.14645 17.8595C3.24021 17.9532 3.36739 18.0059 3.5 18.0059H6.5C6.63261 18.0059 6.75979 17.9532 6.85355 17.8595C6.94732 17.7657 7 17.6385 7 17.5059V10.8059H9.62C9.73119 10.8075 9.83974 10.772 9.92848 10.705C10.0172 10.638 10.0811 10.5433 10.11 10.4359L10.83 7.83591C10.8499 7.76203 10.8526 7.68458 10.8378 7.6095C10.8231 7.53443 10.7913 7.46374 10.7449 7.40288C10.6985 7.34203 10.6388 7.29262 10.5704 7.25847C10.5019 7.22432 10.4265 7.20634 10.35 7.20591H7V4.50591C7.02487 4.25839 7.14111 4.02902 7.32602 3.86261C7.51093 3.69619 7.75123 3.60467 8 3.60591H10.5C10.6326 3.60591 10.7598 3.55323 10.8536 3.45947C10.9473 3.3657 11 3.23852 11 3.10591V0.505913Z" fill="black"/>
</svg>
